<svg xmlns="http://www.w3.org/2000/svg" version="1.1" xmlns:xlink="http://www.w3.org/1999/xlink" xmlns:svgjs="http://svgjs.dev/svgjs" width="1500" height="1500" viewBox="0 0 1500 1500"><rect width="1500" height="1500" fill="#ffffff"></rect><g transform="matrix(0.6666666666666666,0,0,0.6666666666666666,249.39393939393938,628.4466153846154)"><svg viewBox="0 0 396 96" data-background-color="#ffffff" preserveAspectRatio="xMidYMid meet" height="363" width="1500" xmlns="http://www.w3.org/2000/svg" xmlns:xlink="http://www.w3.org/1999/xlink"><g id="tight-bounds" transform="matrix(1,0,0,1,0.2400000000000091,0.21952447552448007)"><svg viewBox="0 0 395.52 95.56095104895103" height="95.56095104895103" width="395.52"><g><svg viewBox="0 0 395.52000000000004 95.56095104895104" height="95.56095104895103" width="395.52"><g><svg viewBox="0 0 395.52000000000004 95.56095104895104" height="95.56095104895104" width="395.52000000000004"><g id="textblocktransform"><svg viewBox="0 0 395.52000000000004 95.56095104895104" height="95.56095104895104" width="395.52000000000004" id="textblock"><g><svg viewBox="0 0 395.52000000000004 95.56095104895104" height="95.56095104895104" width="395.52000000000004"><g transform="matrix(1,0,0,1,0,0)"><svg width="395.52000000000004" viewBox="3.25 -34.15 142.99 34.55" height="95.56095104895104" data-palette-color="#000000"><path d="M11-13.8L11-6.15 24.2-6.15 24.2 0 3.25 0 3.25-33.7 24-33.7 24-27.55 11-27.55 11-19.9 22.6-19.9 22.6-13.8 11-13.8ZM49.9-32.2L49.9-32.2 49.9-25Q45.85-27.35 41.5-27.35L41.5-27.35Q39.55-27.35 38.52-26.55 37.5-25.75 37.5-24.5 37.5-23.25 38.75-22.28 40-21.3 42.5-20.2L42.5-20.2Q44.05-19.5 45.07-18.98 46.1-18.45 47.42-17.53 48.75-16.6 49.52-15.58 50.3-14.55 50.85-13.05 51.4-11.55 51.4-9.8L51.4-9.8Q51.4-5.25 48.05-2.43 44.7 0.4 39.15 0.4L39.15 0.4Q33.2 0.4 29.45-1.7L29.45-1.7 29.45-9.45Q34-6.15 39.15-6.15L39.15-6.15Q40.9-6.15 42.05-7.08 43.2-8 43.2-9.5L43.2-9.5Q43.2-10 43.05-10.45 42.9-10.9 42.5-11.3 42.1-11.7 41.72-11.98 41.35-12.25 40.62-12.63 39.9-13 39.4-13.25 38.9-13.5 37.92-13.95 36.95-14.4 36.35-14.65L36.35-14.65Q33.1-16.15 31.12-18.35 29.15-20.55 29.15-24.2L29.15-24.2Q29.15-28.55 32.35-31.23 35.55-33.9 41.2-33.9L41.2-33.9Q46.25-33.9 49.9-32.2ZM66.35-14.3L66-13.1 74.1-13.1 73.75-14.3Q72.3-19.2 71.37-22.65 70.45-26.1 70.25-27.1L70.25-27.1 70.05-28.1Q69.65-25.35 66.35-14.3L66.35-14.3ZM86.25 0L78 0 75.95-6.9 64.15-6.9 62.1 0 54.05 0 65.3-33.7 75-33.7 86.25 0ZM102.14-27.45L98.34-27.45 98.34-17.95 101.99-17.95Q106.99-17.95 106.99-22.85L106.99-22.85Q106.99-25 105.69-26.23 104.39-27.45 102.14-27.45L102.14-27.45ZM117.19 0L107.99 0 100.69-11.7 98.34-11.7 98.34 0 90.64 0 90.64-33.7 102.29-33.7Q107.94-33.7 111.37-30.7 114.79-27.7 114.79-22.9L114.79-22.9Q114.79-15.7 108.64-12.95L108.64-12.95 117.19 0ZM146.24-32.25L146.24-32.25 146.24-24.85Q142.49-27.15 137.89-27.15L137.89-27.15Q133.84-27.15 131.09-24.33 128.34-21.5 128.34-16.75L128.34-16.75Q128.34-12.1 131.09-9.38 133.84-6.65 138.19-6.65L138.19-6.65Q142.89-6.65 146.24-9.05L146.24-9.05 146.24-1.5Q143.19 0.4 137.44 0.4L137.44 0.4Q130.04 0.4 125.07-4.38 120.09-9.15 120.09-16.75L120.09-16.75Q120.09-24.45 124.92-29.3 129.74-34.15 137.49-34.15L137.49-34.15Q143.19-34.15 146.24-32.25Z" opacity="1" transform="matrix(1,0,0,1,0,0)" fill="#000000" class="wordmark-text-0" data-fill-palette-color="primary" id="text-0"></path></svg></g></svg></g></svg></g></svg></g></svg></g><defs></defs></svg><rect width="395.52" height="95.56095104895103" fill="none" stroke="none" visibility="hidden"></rect></g></svg></g></svg>